[Header]
# KeyWord<space>Value<CR>FileType htr
DataType HTRS
FileVersion 1.0
NumSegments 32
NumFrames 4
DataFrameRate 24
EulerRotationOrder XYZ
CalibrationUnits m
RotationUnits Degrees
GlobalAxisofGravity Z
BoneLengthAxis Z
ScaleFactor 1.0
[SegmentNames&Hierarchy]
# ObjectName<tab>ParentObjectName<CR>
pelvis	GLOBAL
spine01	pelvis
spine02	spine01
spine03	spine02
neck	spine03
head	neck
Collar_left	spine03
shoulder_up_left	Collar_left
bicep_up_left	shoulder_up_left
forearm_up_left	bicep_up_left
hand_up_left	forearm_up_left
shoulder_down_left	Collar_left
bicep_down_left	shoulder_down_left
forearm_down_left	bicep_down_left
hand_down_left	forearm_down_left
Collar_right	spine03
shoulder_up_right	Collar_right
bicep_up_right	shoulder_up_right
forearm_up_right	bicep_up_right
hand_up_right	forearm_up_right
shoulder_down_right	Collar_right
bicep_down_right	shoulder_down_right
forearm_down_right	bicep_down_right
hand_down_right	forearm_down_right
hip_left	pelvis
thigh_left	hip_left
shin_left	thigh_left
foot_left	shin_left
hip_right	pelvis
thigh_right	hip_right
shin_right	thigh_right
foot_right	shin_right
[BasePosition]
# ObjectName<tab>Tx<tab>Ty<tab>Tz<tab>Rx<tab>Ry<tab>Rz<tab>BoneLength<CR>
pelvis	0.000000	-0.438872	6.292980	90.000003	-0.000000	0.000000	1.677268
spine01	0.000000	1.677268	0.000000	0.000000	-0.000000	0.000000	2.370449
spine02	0.000000	2.370449	0.000000	0.000000	-0.000000	0.000000	2.680865
spine03	0.000000	2.680865	0.000000	0.000000	-0.000000	0.000000	3.160599
neck	0.000000	3.160599	0.000000	0.000000	-0.000000	0.000000	1.269882
head	0.000000	1.269882	0.000000	0.000000	0.000014	0.000000	4.176504
Collar_left	0.000000	3.160599	0.000000	21.069689	1.138138	109.250822	2.543778
shoulder_up_left	0.000001	2.543777	0.000000	-20.742461	-3.950507	-7.147224	2.341869
bicep_up_left	-0.000001	2.341868	0.000000	4.293160	0.027559	-5.998107	4.071239
forearm_up_left	0.000000	4.071239	-0.000000	-8.968416	-0.165229	-2.037328	3.736216
hand_up_left	0.000000	3.736216	0.000000	-0.780378	-0.284650	4.522557	2.141806
shoulder_down_left	0.000001	2.543777	0.000000	-11.374732	11.433438	33.097546	3.448410
bicep_down_left	-0.000001	3.448409	-0.000000	-0.711867	-1.315530	-6.783924	3.064684
forearm_down_left	0.000001	3.064684	0.000000	-17.686662	0.165761	1.581994	3.587720
hand_down_left	0.000000	3.587720	0.000000	11.694505	-0.524996	2.534701	2.862190
Collar_right	0.000000	3.160599	0.000000	21.069689	-1.138138	-109.250822	2.543778
shoulder_up_right	-0.000001	2.543777	0.000000	-20.742461	3.950507	7.147224	2.341869
bicep_up_right	0.000001	2.341868	0.000000	4.293160	-0.027559	5.998107	4.071239
forearm_up_right	0.000000	4.071239	-0.000000	-8.968416	0.165229	2.037328	3.736216
hand_up_right	0.000000	3.736216	0.000000	-0.780378	0.284650	-4.522557	2.141806
shoulder_down_right	-0.000001	2.543777	0.000000	-11.374732	-11.433438	-33.097546	3.448410
bicep_down_right	0.000001	3.448409	-0.000000	-0.711867	1.315530	6.783924	3.064684
forearm_down_right	-0.000001	3.064684	0.000000	-17.686662	-0.165761	-1.581994	3.587720
hand_down_right	0.000000	3.587720	0.000000	11.694505	0.524996	-2.534701	2.862190
hip_left	0.000000	-0.000003	0.000000	-96.241914	89.999996	0.000000	2.616231
thigh_left	0.000000	2.616231	0.000000	-73.061577	0.000001	0.000006	2.153898
shin_left	0.000000	2.153898	0.000000	-11.660560	0.342853	1.646302	2.782515
foot_left	0.000000	2.782514	0.000000	0.241543	0.154340	-77.422202	3.370008
hip_right	0.000000	-0.000003	0.000000	-96.241914	-89.999996	0.000000	2.616231
thigh_right	-0.000000	2.616231	0.000000	-73.061577	-0.000001	-0.000006	2.153898
shin_right	0.000000	2.153898	0.000000	-11.660560	-0.342853	-1.646302	2.782515
foot_right	-0.000000	2.782514	0.000000	0.241543	-0.154340	77.422202	3.370008
[pelvis]
# Tx<tab>Ty<tab>Tz<tab>Rx<tab>Ry<tab>Rz<tab>BoneScaleFactor<CR>
25	0.000000	0.000000	0.000000	0.000000	-0.000000	0.000000	1.000000
26	0.000000	0.000000	0.000000	0.000000	-0.000000	0.000000	1.000000
27	0.000000	0.000000	0.000000	0.000000	-0.000000	0.000000	1.000000
28	0.000000	0.000000	0.000000	0.000000	-0.000000	0.000000	1.000000
[spine01]
# Tx<tab>Ty<tab>Tz<tab>Rx<tab>Ry<tab>Rz<tab>BoneScaleFactor<CR>
25	0.000000	0.000000	0.000000	-15.909247	-0.000000	0.000000	1.000000
26	0.000000	0.000000	0.000000	-16.377373	-0.000000	0.000000	1.000000
27	0.000000	0.000000	0.000000	-16.756266	-0.000000	0.000000	1.000000
28	0.000000	0.000000	0.000000	-17.037425	-0.000000	0.000000	1.000000
[spine02]
# Tx<tab>Ty<tab>Tz<tab>Rx<tab>Ry<tab>Rz<tab>BoneScaleFactor<CR>
25	0.000000	0.000000	0.000000	-12.737796	-0.000000	0.000000	1.000000
26	0.000000	0.000000	0.000000	-13.112603	-0.000000	0.000000	1.000000
27	0.000000	0.000000	0.000000	-13.415963	-0.000000	0.000000	1.000000
28	0.000000	0.000000	0.000000	-13.641076	-0.000000	0.000000	1.000000
[spine03]
# Tx<tab>Ty<tab>Tz<tab>Rx<tab>Ry<tab>Rz<tab>BoneScaleFactor<CR>
25	0.000000	0.000000	0.000000	-15.080119	-0.000000	0.000000	1.000000
26	0.000000	0.000000	0.000000	-15.523847	-0.000000	0.000000	1.000000
27	0.000000	0.000000	0.000000	-15.882994	-0.000000	0.000000	1.000000
28	0.000000	0.000000	0.000000	-16.149501	-0.000000	0.000000	1.000000
[neck]
# Tx<tab>Ty<tab>Tz<tab>Rx<tab>Ry<tab>Rz<tab>BoneScaleFactor<CR>
25	0.000000	0.000000	0.000000	0.000000	-0.000000	0.000000	1.000000
26	0.000000	0.000000	0.000000	0.000000	-0.000000	0.000000	1.000000
27	0.000000	0.000000	0.000000	0.000000	-0.000000	0.000000	1.000000
28	0.000000	0.000000	0.000000	0.000000	-0.000000	0.000000	1.000000
[head]
# Tx<tab>Ty<tab>Tz<tab>Rx<tab>Ry<tab>Rz<tab>BoneScaleFactor<CR>
25	0.000000	0.000000	0.000000	0.000000	-0.000000	0.000000	1.000000
26	0.000000	0.000000	0.000000	0.000000	-0.000000	0.000000	1.000000
27	0.000000	0.000000	0.000000	0.000000	-0.000000	0.000000	1.000000
28	0.000000	0.000000	0.000000	0.000000	-0.000000	0.000000	1.000000
[Collar_left]
# Tx<tab>Ty<tab>Tz<tab>Rx<tab>Ry<tab>Rz<tab>BoneScaleFactor<CR>
25	0.000000	0.000000	0.000000	0.000000	-0.000000	0.000000	1.000000
26	0.000000	0.000000	0.000000	0.000000	-0.000000	0.000000	1.000000
27	0.000000	0.000000	0.000000	0.000000	-0.000000	0.000000	1.000000
28	0.000000	0.000000	0.000000	0.000000	-0.000000	0.000000	1.000000
[shoulder_up_left]
# Tx<tab>Ty<tab>Tz<tab>Rx<tab>Ry<tab>Rz<tab>BoneScaleFactor<CR>
25	0.000000	0.000000	0.000000	-2.072310	-7.940554	-39.563294	1.000000
26	0.000000	0.000000	0.000000	-2.133287	-8.174203	-40.727438	1.000000
27	0.000000	0.000000	0.000000	-2.182641	-8.363314	-41.669666	1.000000
28	0.000000	0.000000	0.000000	-2.219264	-8.503645	-42.368866	1.000000
[bicep_up_left]
# Tx<tab>Ty<tab>Tz<tab>Rx<tab>Ry<tab>Rz<tab>BoneScaleFactor<CR>
25	0.000000	0.000000	0.000000	0.000000	-0.000000	0.000000	1.000000
26	0.000000	0.000000	0.000000	0.000000	-0.000000	0.000000	1.000000
27	0.000000	0.000000	0.000000	0.000000	-0.000000	0.000000	1.000000
28	0.000000	0.000000	0.000000	0.000000	-0.000000	0.000000	1.000000
[forearm_up_left]
# Tx<tab>Ty<tab>Tz<tab>Rx<tab>Ry<tab>Rz<tab>BoneScaleFactor<CR>
25	0.000000	0.000000	0.000000	-13.493287	-10.813006	-15.161010	1.000000
26	0.000000	0.000000	0.000000	-13.890325	-11.131176	-15.607119	1.000000
27	0.000000	0.000000	0.000000	-14.211679	-11.388696	-15.968190	1.000000
28	0.000000	0.000000	0.000000	-14.450145	-11.579792	-16.236130	1.000000
[hand_up_left]
# Tx<tab>Ty<tab>Tz<tab>Rx<tab>Ry<tab>Rz<tab>BoneScaleFactor<CR>
25	0.000000	0.000000	0.000000	0.840407	-35.653827	2.064918	1.000000
26	0.000000	0.000000	0.000000	0.865136	-36.702937	2.125678	1.000000
27	0.000000	0.000000	0.000000	0.885151	-37.552066	2.174856	1.000000
28	0.000000	0.000000	0.000000	0.900003	-38.182164	2.211348	1.000000
[shoulder_down_left]
# Tx<tab>Ty<tab>Tz<tab>Rx<tab>Ry<tab>Rz<tab>BoneScaleFactor<CR>
25	0.000000	0.000000	0.000000	0.000000	-0.000000	0.000000	1.000000
26	0.000000	0.000000	0.000000	0.000000	-0.000000	0.000000	1.000000
27	0.000000	0.000000	0.000000	0.000000	-0.000000	0.000000	1.000000
28	0.000000	0.000000	0.000000	0.000000	-0.000000	0.000000	1.000000
[bicep_down_left]
# Tx<tab>Ty<tab>Tz<tab>Rx<tab>Ry<tab>Rz<tab>BoneScaleFactor<CR>
25	0.000000	0.000000	0.000000	-16.072303	8.824490	-24.906708	1.000000
26	0.000000	0.000000	0.000000	-16.545223	9.084150	-25.639581	1.000000
27	0.000000	0.000000	0.000000	-16.927999	9.294311	-26.232755	1.000000
28	0.000000	0.000000	0.000000	-17.212039	9.450265	-26.672930	1.000000
[forearm_down_left]
# Tx<tab>Ty<tab>Tz<tab>Rx<tab>Ry<tab>Rz<tab>BoneScaleFactor<CR>
25	0.000000	0.000000	0.000000	-17.621704	16.676877	-22.204206	1.000000
26	0.000000	0.000000	0.000000	-18.140221	17.167588	-22.857563	1.000000
27	0.000000	0.000000	0.000000	-18.559895	17.564764	-23.386370	1.000000
28	0.000000	0.000000	0.000000	-18.871326	17.859493	-23.778781	1.000000
[hand_down_left]
# Tx<tab>Ty<tab>Tz<tab>Rx<tab>Ry<tab>Rz<tab>BoneScaleFactor<CR>
25	0.000000	0.000000	0.000000	0.000000	-0.000000	0.000000	1.000000
26	0.000000	0.000000	0.000000	0.000000	-0.000000	0.000000	1.000000
27	0.000000	0.000000	0.000000	0.000000	-0.000000	0.000000	1.000000
28	0.000000	0.000000	0.000000	0.000000	-0.000000	0.000000	1.000000
[Collar_right]
# Tx<tab>Ty<tab>Tz<tab>Rx<tab>Ry<tab>Rz<tab>BoneScaleFactor<CR>
25	0.000000	0.000000	0.000000	0.000000	-0.000000	0.000000	1.000000
26	0.000000	0.000000	0.000000	0.000000	-0.000000	0.000000	1.000000
27	0.000000	0.000000	0.000000	0.000000	-0.000000	0.000000	1.000000
28	0.000000	0.000000	0.000000	0.000000	-0.000000	0.000000	1.000000
[shoulder_up_right]
# Tx<tab>Ty<tab>Tz<tab>Rx<tab>Ry<tab>Rz<tab>BoneScaleFactor<CR>
25	0.000000	0.000000	0.000000	2.323856	6.452362	37.451990	1.000000
26	0.000000	0.000000	0.000000	2.392235	6.642222	38.554003	1.000000
27	0.000000	0.000000	0.000000	2.447580	6.795890	39.445961	1.000000
28	0.000000	0.000000	0.000000	2.488649	6.909922	40.107841	1.000000
[bicep_up_right]
# Tx<tab>Ty<tab>Tz<tab>Rx<tab>Ry<tab>Rz<tab>BoneScaleFactor<CR>
25	0.000000	0.000000	0.000000	0.000000	-0.000000	0.000000	1.000000
26	0.000000	0.000000	0.000000	0.000000	-0.000000	0.000000	1.000000
27	0.000000	0.000000	0.000000	0.000000	-0.000000	0.000000	1.000000
28	0.000000	0.000000	0.000000	0.000000	-0.000000	0.000000	1.000000
[forearm_up_right]
# Tx<tab>Ty<tab>Tz<tab>Rx<tab>Ry<tab>Rz<tab>BoneScaleFactor<CR>
25	0.000000	0.000000	0.000000	-18.264624	17.764941	20.881200	1.000000
26	0.000000	0.000000	0.000000	-18.802056	18.287673	21.495626	1.000000
27	0.000000	0.000000	0.000000	-19.237042	18.710760	21.992924	1.000000
28	0.000000	0.000000	0.000000	-19.559828	19.024718	22.361957	1.000000
[hand_up_right]
# Tx<tab>Ty<tab>Tz<tab>Rx<tab>Ry<tab>Rz<tab>BoneScaleFactor<CR>
25	0.000000	0.000000	0.000000	-8.405361	36.289673	-7.287465	1.000000
26	0.000000	0.000000	0.000000	-8.652688	37.357487	-7.501897	1.000000
27	0.000000	0.000000	0.000000	-8.852868	38.221759	-7.675455	1.000000
28	0.000000	0.000000	0.000000	-9.001413	38.863104	-7.804246	1.000000
[shoulder_down_right]
# Tx<tab>Ty<tab>Tz<tab>Rx<tab>Ry<tab>Rz<tab>BoneScaleFactor<CR>
25	0.000000	0.000000	0.000000	0.000000	-0.000000	0.000000	1.000000
26	0.000000	0.000000	0.000000	0.000000	-0.000000	0.000000	1.000000
27	0.000000	0.000000	0.000000	0.000000	-0.000000	0.000000	1.000000
28	0.000000	0.000000	0.000000	0.000000	-0.000000	0.000000	1.000000
[bicep_down_right]
# Tx<tab>Ty<tab>Tz<tab>Rx<tab>Ry<tab>Rz<tab>BoneScaleFactor<CR>
25	0.000000	0.000000	0.000000	-20.212478	-9.681097	30.906083	1.000000
26	0.000000	0.000000	0.000000	-20.807224	-9.965962	31.815492	1.000000
27	0.000000	0.000000	0.000000	-21.288605	-10.196525	32.551538	1.000000
28	0.000000	0.000000	0.000000	-21.645817	-10.367616	33.097738	1.000000
[forearm_down_right]
# Tx<tab>Ty<tab>Tz<tab>Rx<tab>Ry<tab>Rz<tab>BoneScaleFactor<CR>
25	0.000000	0.000000	0.000000	-10.874794	-11.988621	14.067618	1.000000
26	0.000000	0.000000	0.000000	-11.194784	-12.341387	14.481557	1.000000
27	0.000000	0.000000	0.000000	-11.453774	-12.626904	14.816586	1.000000
28	0.000000	0.000000	0.000000	-11.645966	-12.838775	15.065203	1.000000
[hand_down_right]
# Tx<tab>Ty<tab>Tz<tab>Rx<tab>Ry<tab>Rz<tab>BoneScaleFactor<CR>
25	0.000000	0.000000	0.000000	0.000000	-0.000000	0.000000	1.000000
26	0.000000	0.000000	0.000000	0.000000	-0.000000	0.000000	1.000000
27	0.000000	0.000000	0.000000	0.000000	-0.000000	0.000000	1.000000
28	0.000000	0.000000	0.000000	0.000000	-0.000000	0.000000	1.000000
[hip_left]
# Tx<tab>Ty<tab>Tz<tab>Rx<tab>Ry<tab>Rz<tab>BoneScaleFactor<CR>
25	0.000000	0.000000	0.000000	0.000000	-0.000000	0.000000	1.000000
26	0.000000	0.000000	0.000000	0.000000	-0.000000	0.000000	1.000000
27	0.000000	0.000000	0.000000	0.000000	-0.000000	0.000000	1.000000
28	0.000000	0.000000	0.000000	0.000000	-0.000000	0.000000	1.000000
[thigh_left]
# Tx<tab>Ty<tab>Tz<tab>Rx<tab>Ry<tab>Rz<tab>BoneScaleFactor<CR>
25	0.000000	0.000000	0.000000	0.000000	-0.000000	0.000000	1.000000
26	0.000000	0.000000	0.000000	0.000000	-0.000000	0.000000	1.000000
27	0.000000	0.000000	0.000000	0.000000	-0.000000	0.000000	1.000000
28	0.000000	0.000000	0.000000	0.000000	-0.000000	0.000000	1.000000
[shin_left]
# Tx<tab>Ty<tab>Tz<tab>Rx<tab>Ry<tab>Rz<tab>BoneScaleFactor<CR>
25	0.000000	0.000000	0.000000	0.000000	-0.000000	0.000000	1.000000
26	0.000000	0.000000	0.000000	0.000000	-0.000000	0.000000	1.000000
27	0.000000	0.000000	0.000000	0.000000	-0.000000	0.000000	1.000000
28	0.000000	0.000000	0.000000	0.000000	-0.000000	0.000000	1.000000
[foot_left]
# Tx<tab>Ty<tab>Tz<tab>Rx<tab>Ry<tab>Rz<tab>BoneScaleFactor<CR>
25	0.000000	0.000000	0.000000	0.000000	-0.000000	0.000000	1.000000
26	0.000000	0.000000	0.000000	0.000000	-0.000000	0.000000	1.000000
27	0.000000	0.000000	0.000000	0.000000	-0.000000	0.000000	1.000000
28	0.000000	0.000000	0.000000	0.000000	-0.000000	0.000000	1.000000
[hip_right]
# Tx<tab>Ty<tab>Tz<tab>Rx<tab>Ry<tab>Rz<tab>BoneScaleFactor<CR>
25	0.000000	0.000000	0.000000	0.000000	-0.000000	0.000000	1.000000
26	0.000000	0.000000	0.000000	0.000000	-0.000000	0.000000	1.000000
27	0.000000	0.000000	0.000000	0.000000	-0.000000	0.000000	1.000000
28	0.000000	0.000000	0.000000	0.000000	-0.000000	0.000000	1.000000
[thigh_right]
# Tx<tab>Ty<tab>Tz<tab>Rx<tab>Ry<tab>Rz<tab>BoneScaleFactor<CR>
25	0.000000	0.000000	0.000000	0.000000	-0.000000	0.000000	1.000000
26	0.000000	0.000000	0.000000	0.000000	-0.000000	0.000000	1.000000
27	0.000000	0.000000	0.000000	0.000000	-0.000000	0.000000	1.000000
28	0.000000	0.000000	0.000000	0.000000	-0.000000	0.000000	1.000000
[shin_right]
# Tx<tab>Ty<tab>Tz<tab>Rx<tab>Ry<tab>Rz<tab>BoneScaleFactor<CR>
25	0.000000	0.000000	0.000000	0.000000	-0.000000	0.000000	1.000000
26	0.000000	0.000000	0.000000	0.000000	-0.000000	0.000000	1.000000
27	0.000000	0.000000	0.000000	0.000000	-0.000000	0.000000	1.000000
28	0.000000	0.000000	0.000000	0.000000	-0.000000	0.000000	1.000000
[foot_right]
# Tx<tab>Ty<tab>Tz<tab>Rx<tab>Ry<tab>Rz<tab>BoneScaleFactor<CR>
25	0.000000	0.000000	0.000000	0.000000	-0.000000	0.000000	1.000000
26	0.000000	0.000000	0.000000	0.000000	-0.000000	0.000000	1.000000
27	0.000000	0.000000	0.000000	0.000000	-0.000000	0.000000	1.000000
28	0.000000	0.000000	0.000000	0.000000	-0.000000	0.000000	1.000000
[EndOfFile]
